<svg xmlns="http://www.w3.org/2000/svg" xmlns:xlink="http://www.w3.org/1999/xlink" version="1.1" x="0px" y="0px" viewBox="0 0 500 560" style="enable-background:new 0 0 500 500;" xml:space="preserve"><style type="text/css">
	.st0{fill-rule:evenodd;clip-rule:evenodd;}
</style><g><path class="st0" d="M230.3,104.6c8.1-16.2,31.2-16.2,39.3,0l136.6,273.1c7.3,14.6-3.3,31.8-19.7,31.8H113.4   c-16.3,0-27-17.2-19.7-31.8L230.3,103.6z M293.3,91.8c-17.8-35.7-68.7-35.7-86.5,0L70.2,364.9c-16.1,32.2,7.3,70,43.3,70h273.1   c36,0,59.3-37.8,43.3-70L293.3,91.8z M231.9,314.5L231.9,314.5c0,1.2,1,2.2,2.2,2.2H257c1.2,0,2.2-1,2.2-2.2l0,0   c0.1-5.9,0.7-10.9,2-14.9c1.4-4.1,3.4-7.6,6.2-10.6c2.8-3,6.5-5.9,10.9-8.7c5-3.1,9.4-6.6,13-10.5c3.7-3.9,6.5-8.4,8.4-13.4   c2-5,3-10.7,3-17.1c0-9.4-2.2-17.6-6.7-24.5c-4.4-6.9-10.6-12.3-18.6-16c-7.9-3.7-17.1-5.6-27.5-5.6c-9.6,0-18.3,1.8-26.2,5.4   c-7.9,3.6-14.2,8.9-19,16.1c-4.4,6.6-6.9,14.7-7.4,24.3c-0.1,1.3,0.9,2.3,2.2,2.3h24.9c1.1,0,2-0.9,2.2-2c0.5-4.4,1.7-8.1,3.6-11   c2.3-3.5,5.2-6,8.6-7.7c3.5-1.7,7.2-2.6,11.1-2.6c4.2,0,8,0.9,11.4,2.7s6.2,4.3,8.2,7.5s3,7.1,3,11.5c0,3.9-0.8,7.5-2.3,10.6   s-3.6,6-6.3,8.6c-2.6,2.5-5.6,4.8-8.9,7c-4.9,3.1-9,6.5-12.4,10.1s-6,8.4-7.9,14.4C232.8,296.3,231.9,304.4,231.9,314.5z    M233.4,363.6c3.5,3.6,7.8,5.4,12.7,5.4c3.3,0,6.2-0.8,8.9-2.4c2.7-1.7,4.9-3.9,6.6-6.7c1.7-2.8,2.5-5.9,2.5-9.3   c0-5-1.8-9.3-5.4-12.9c-3.5-3.6-7.8-5.4-12.6-5.4c-4.9,0-9.1,1.8-12.7,5.4c-3.5,3.6-5.3,7.9-5.3,12.9   C228.1,355.7,229.9,360,233.4,363.6z" fill="#AAAAAA"/></g></svg>